<svg version="1.1" xmlns="http://www.w3.org/2000/svg" viewBox="-51.40516154955577 -3.9843061471268086 84.19129822842609 7.417489862012876" fill="none" stroke="black" stroke-width="0.6%" vector-effect="non-scaling-stroke">
    <path d="M 28.9296 -1.6331 L 20.46927 -1.85593 L 20.90484 -2.02277 L 19.27872 -2.29802 L 18.26834 -2.36436" />
    <path d="M 13.56891 2.36608 A 5 0.14865 180 0 0 22.74935 2.28453" />
    <path d="M -1.7025 2.39355 L 13.56891 2.36608" />
    <path d="M -11.62806 2.13212 L -1.7025 2.39355 L -1.7025 -0.60513 L 13.56891 -0.63259 L 13.56891 2.36608" />
    <path d="M -12.39635 2.13763 L -11.62806 2.13212 L -11.62806 -0.86655 L -1.7025 -0.60513" />
    <path d="M -21.79534 2.13355 L -12.39635 2.13763 L -12.39635 -0.86104 L -11.62806 -0.86655" />
    <path d="M -27.92638 2.08389 L -21.79534 2.13355 L -21.79534 -0.86513 L -12.39635 -0.86104" />
    <path d="M -32.84943 2.02652 A 5 0.14865 180 0 0 -27.92638 2.08389" />
    <path d="M -39.03499 1.92189 L -32.84943 2.02652" />
    <path d="M -45.79243 1.72763 L -39.03499 1.92189 L -39.03499 -1.07678 L -32.84943 -0.97215 L -32.84943 2.02652" />
    <path d="M -50.40516 1.50438 L -45.79243 1.72763 L -45.79243 -1.27105 L -39.03499 -1.07678" />
    <path d="M 24.1416 2.13285 A 5 0.14865 180 0 0 31.78614 2.00669" />
    <path d="M 22.74935 2.17957 L 24.1416 2.13285" />
    <path d="M 20.90484 -1.84446 L 20.90484 -2.02277" />
    <path d="M 21.98104 -0.79332 A 5 0.14865 360 0 1 22.74935 -0.71414 A 5 0.14865 360 0 1 13.56891 -0.63259" />
    <path d="M -27.92638 -0.91478 L -21.79534 -0.86513" />
    <path d="M -27.92638 -0.91478 A 5 0.14865 360 0 1 -32.84943 -0.97215" />
    <path d="M -50.40516 -1.49429 L -45.79243 -1.27105" />
    <path d="M -1.77318 -2.98431 A 65 1.93246 360 0 1 -50.40516 -1.49429 L -50.40516 1.50438" />
    <path d="M 1.99295 -2.93807 L -1.77318 -2.98431" />
    <path d="M 9.51606 -2.77051 L 1.99295 -2.93807" />
    <path d="M 15.40125 -2.5526 L 9.51606 -2.77051" />
    <path d="M 16.35348 -2.49008 L 15.40125 -2.5526" />
    <path d="M 16.35348 -2.49008 A 5 0.14865 360 0 1 18.27662 -2.37291 A 5 0.14865 360 0 1 18.26834 -2.36436" />
    <path d="M 30.00255 -1.10579 L 28.9296 -1.6331" />
    <path d="M 30.00255 -1.10579 A 5 0.14865 360 0 1 31.78614 -0.99198 A 5 0.14865 360 0 1 24.1416 -0.86582 L 24.1416 2.13285" />
    <path d="M 21.98104 -0.79332 L 24.1416 -0.86582" />
    <path d="M -39.86599 -1.45031 L -36.47052 -1.42507 L -35.50803 -1.32502 L -37.94101 -1.25022 L -41.33648 -1.27546 L -42.29897 -1.37551 L -39.86599 -1.45031 Z" />
    <path d="M -27.52117 -1.04372 A 1.75 0.05203 360 0 1 -30.52921 -1.07989 A 1.75 0.05203 360 0 1 -27.02921 -1.07989 A 1.75 0.05203 360 0 1 -27.52117 -1.04372 Z" />
    <path d="M -20.24845 -1.74138 L -16.51344 -1.71361 L -15.4547 -1.60357 L -18.13098 -1.52128 L -21.866 -1.54905 L -22.92473 -1.6591 L -20.24845 -1.74138 Z" />
    <path d="M -5.87092 -1.32805 L -2.1359 -1.30028 L -1.07717 -1.19024 L -3.75344 -1.10795 L -7.48846 -1.13572 L -8.5472 -1.24577 L -5.87092 -1.32805 Z" />
    <path d="M 16.78686 -0.81419 L 20.18233 -0.78894 L 21.14482 -0.6889 L 18.71183 -0.6141 L 15.31636 -0.63934 L 14.35388 -0.73938 L 16.78686 -0.81419 Z" />
    <path d="M 9.9121 -1.20827 A 7.1 0.21108 360 0 1 8.53168 -1.33333 A 7.1 0.21108 360 1 1 22.73168 -1.33333 A 7.1 0.21108 360 0 1 11.61933 -1.15919 L 11.61933 -0.90905" />
    <path d="M 11.61933 -1.15919 A 7.1 0.21108 360 0 1 12.99975 -1.03412 A 7.1 0.21108 360 0 1 -1.20025 -1.03412 A 7.1 0.21108 360 0 1 9.9121 -1.20827 L 9.9121 -0.85997" />
    <path d="M 8.03183 -1.75549 L 11.76685 -1.72773 L 12.82559 -1.61768 L 10.14931 -1.5354 L 6.41429 -1.56316 L 5.35555 -1.67321 L 8.03183 -1.75549 Z" />
    <path d="M 25.82365 -1.09202 L 29.21912 -1.06678 L 30.18161 -0.96674 L 27.74862 -0.89194 L 24.35315 -0.91718 L 23.39067 -1.01722 L 25.82365 -1.09202 Z" />
    <path d="M -6.3457 -2.16883 L -2.61068 -2.14106 L -1.55195 -2.03101 L -4.22823 -1.94873 L -7.96324 -1.97649 L -9.02198 -2.08654 L -6.3457 -2.16883 Z" />
    <path d="M 2.24986 -2.76228 L 5.64533 -2.73704 L 6.60782 -2.637 L 4.17483 -2.5622 L 0.77936 -2.58744 L -0.18312 -2.68748 L 2.24986 -2.76228 Z" />
    <path d="M 14.18708 -2.32606 A 1.75 0.05203 360 0 1 11.17905 -2.36222 A 1.75 0.05203 360 0 1 14.67905 -2.36222 A 1.75 0.05203 360 0 1 14.18708 -2.32606 Z" />
    <path d="M -27.92638 -0.91478 L -27.92638 2.08389" />
    <path d="M -39.86599 -1.26453 L -39.86599 -1.45031" />
    <path d="M -36.47052 -1.29543 L -36.47052 -1.42507" />
    <path d="M -20.24845 -1.53702 L -20.24845 -1.74138" />
    <path d="M -16.51344 -1.57102 L -16.51344 -1.71361" />
    <path d="M -5.87092 -1.12369 L -5.87092 -1.32805" />
    <path d="M -2.1359 -1.15769 L -2.1359 -1.30028" />
    <path d="M 16.78686 -0.62841 L 16.78686 -0.81419" />
    <path d="M 20.18233 -0.65931 L 20.18233 -0.78894" />
    <path d="M 8.03183 -1.55114 L 8.03183 -1.75549" />
    <path d="M 11.76685 -1.58513 L 11.76685 -1.72773" />
    <path d="M 25.82365 -0.90625 L 25.82365 -1.09202" />
    <path d="M 29.21912 -0.93715 L 29.21912 -1.06678" />
    <path d="M -6.3457 -1.96447 L -6.3457 -2.16883" />
    <path d="M -2.61068 -1.99846 L -2.61068 -2.14106" />
    <path d="M 2.24986 -2.57651 L 2.24986 -2.76228" />
    <path d="M 5.64533 -2.60741 L 5.64533 -2.73704" />
    <path d="M 22.74935 -0.71414 L 22.74935 2.28453" />
    <path d="M 18.27662 -2.37291 L 18.27662 -2.36382" />
    <path d="M 31.78614 -0.99198 L 31.78614 2.00669" />
</svg>